<svg xmlns="http://www.w3.org/2000/svg" width="109" height="26" viewBox="0 0 109 26" fill="none"><path fill-rule="evenodd" clip-rule="evenodd" d="M0 4C0 1.79086 1.79086 0 4 0H9C11.2091 0 13 1.79086 13 4V22C13 24.2091 11.2091 26 9 26H4C1.79086 26 0 24.2091 0 22V4ZM14.0833 4C14.0833 1.79086 15.8742 0 18.0833 0H22.5416C24.7508 0 26.5416 1.79086 26.5416 4V8.45834C26.5416 10.6675 24.7508 12.4583 22.5416 12.4583H18.0833C15.8741 12.4583 14.0833 10.6675 14.0833 8.45833V4ZM18.0833 13.5417C15.8742 13.5417 14.0833 15.3325 14.0833 17.5417V22C14.0833 24.2091 15.8741 26 18.0833 26H22.5416C24.7508 26 26.5416 24.2091 26.5416 22V17.5417C26.5416 15.3325 24.7508 13.5417 22.5416 13.5417H18.0833Z" fill="white"></path><path d="M37.4789 18H35.0229L38.2129 8.54545H41.2552L44.4452 18H41.9892L39.7687 10.9276H39.6948L37.4789 18ZM37.1511 14.2791H42.2847V16.0149H37.1511V14.2791ZM53.9424 13.2727C53.9424 14.313 53.7424 15.1947 53.3423 15.918C52.9422 16.6412 52.4005 17.1906 51.7173 17.5661C51.0371 17.9415 50.2739 18.1293 49.4275 18.1293C48.5781 18.1293 47.8133 17.94 47.1331 17.5614C46.453 17.1829 45.9128 16.6335 45.5127 15.9134C45.1157 15.1901 44.9172 14.3099 44.9172 13.2727C44.9172 12.2325 45.1157 11.3507 45.5127 10.6275C45.9128 9.90424 46.453 9.35488 47.1331 8.9794C47.8133 8.60393 48.5781 8.41619 49.4275 8.41619C50.2739 8.41619 51.0371 8.60393 51.7173 8.9794C52.4005 9.35488 52.9422 9.90424 53.3423 10.6275C53.7424 11.3507 53.9424 12.2325 53.9424 13.2727ZM51.6065 13.2727C51.6065 12.6572 51.5188 12.1371 51.3434 11.7124C51.171 11.2876 50.9217 10.966 50.5955 10.7475C50.2723 10.529 49.883 10.4197 49.4275 10.4197C48.9751 10.4197 48.5858 10.529 48.2595 10.7475C47.9333 10.966 47.6825 11.2876 47.5071 11.7124C47.3347 12.1371 47.2485 12.6572 47.2485 13.2727C47.2485 13.8883 47.3347 14.4084 47.5071 14.8331C47.6825 15.2578 47.9333 15.5794 48.2595 15.7979C48.5858 16.0165 48.9751 16.1257 49.4275 16.1257C49.883 16.1257 50.2723 16.0165 50.5955 15.7979C50.9217 15.5794 51.171 15.2578 51.3434 14.8331C51.5188 14.4084 51.6065 13.8883 51.6065 13.2727ZM57.5617 8.54545V18H55.2766V8.54545H57.5617ZM60.2658 18.1339C59.9335 18.1339 59.6488 18.0169 59.4118 17.783C59.1779 17.5491 59.0625 17.266 59.0656 16.9336C59.0625 16.6074 59.1779 16.3288 59.4118 16.098C59.6488 15.8641 59.9335 15.7472 60.2658 15.7472C60.5798 15.7472 60.8568 15.8641 61.0968 16.098C61.3399 16.3288 61.4631 16.6074 61.4661 16.9336C61.4631 17.1552 61.4046 17.3568 61.2907 17.5384C61.1799 17.7199 61.0337 17.8646 60.8521 17.9723C60.6736 18.08 60.4782 18.1339 60.2658 18.1339ZM62.2036 10.4013V8.54545H70.1947V10.4013H67.3279V18H65.0751V10.4013H62.2036ZM71.3108 18V8.54545H73.5959V12.3402H77.3214V8.54545H79.602V18H77.3214V14.2006H73.5959V18H71.3108ZM81.0354 18V8.54545H87.6277V10.4013H83.3205V12.3402H87.2907V14.2006H83.3205V16.1442H87.6277V18H81.0354ZM89.0588 8.54545H91.8887L94.2893 14.3991H94.4001L96.8006 8.54545H99.6305V18H97.4054V12.1925H97.3269L95.0556 17.94H93.6337L91.3624 12.1602H91.284V18H89.0588V8.54545ZM101.056 18V8.54545H107.648V10.4013H103.341V12.3402H107.311V14.2006H103.341V16.1442H107.648V18H101.056Z" fill="white"></path></svg>