<svg xmlns="http://www.w3.org/2000/svg" width="107" height="24" viewBox="0 0 107 24" fill="none"><path fill-rule="evenodd" clip-rule="evenodd" d="M0 4C0 1.79086 1.79086 0 4 0H8C10.2091 0 12 1.79086 12 4V20C12 22.2091 10.2091 24 8 24H4C1.79086 24 0 22.2091 0 20V4ZM13 4C13 1.79086 14.7908 0 17 0H20.5C22.7091 0 24.5 1.79086 24.5 4V7.5C24.5 9.70914 22.7091 11.5 20.5 11.5H17C14.7908 11.5 13 9.70914 13 7.5V4ZM17 12.5C14.7908 12.5 13 14.2909 13 16.5V20C13 22.2091 14.7908 24 17 24H20.5C22.7091 24 24.5 22.2091 24.5 20V16.5C24.5 14.2909 22.7091 12.5 20.5 12.5H17Z" fill="#222222"></path><path d="M35.4379 17H32.9819L36.1719 7.54545H39.2142L42.4042 17H39.9482L37.7277 9.92756H37.6538L35.4379 17ZM35.1101 13.2791H40.2437V15.0149H35.1101V13.2791ZM51.9014 12.2727C51.9014 13.313 51.7014 14.1947 51.3013 14.918C50.9012 15.6412 50.3595 16.1906 49.6763 16.5661C48.9961 16.9415 48.2329 17.1293 47.3865 17.1293C46.5371 17.1293 45.7723 16.94 45.0921 16.5614C44.4119 16.1829 43.8718 15.6335 43.4717 14.9134C43.0747 14.1901 42.8762 13.3099 42.8762 12.2727C42.8762 11.2325 43.0747 10.3507 43.4717 9.62749C43.8718 8.90424 44.4119 8.35488 45.0921 7.9794C45.7723 7.60393 46.5371 7.41619 47.3865 7.41619C48.2329 7.41619 48.9961 7.60393 49.6763 7.9794C50.3595 8.35488 50.9012 8.90424 51.3013 9.62749C51.7014 10.3507 51.9014 11.2325 51.9014 12.2727ZM49.5655 12.2727C49.5655 11.6572 49.4778 11.1371 49.3023 10.7124C49.13 10.2876 48.8807 9.96603 48.5545 9.74751C48.2313 9.529 47.842 9.41974 47.3865 9.41974C46.9341 9.41974 46.5448 9.529 46.2185 9.74751C45.8923 9.96603 45.6415 10.2876 45.466 10.7124C45.2937 11.1371 45.2075 11.6572 45.2075 12.2727C45.2075 12.8883 45.2937 13.4084 45.466 13.8331C45.6415 14.2578 45.8923 14.5794 46.2185 14.7979C46.5448 15.0165 46.9341 15.1257 47.3865 15.1257C47.842 15.1257 48.2313 15.0165 48.5545 14.7979C48.8807 14.5794 49.13 14.2578 49.3023 13.8331C49.4778 13.4084 49.5655 12.8883 49.5655 12.2727ZM55.5207 7.54545V17H53.2356V7.54545H55.5207ZM58.2248 17.1339C57.8924 17.1339 57.6078 17.0169 57.3708 16.783C57.1369 16.5491 57.0215 16.266 57.0245 15.9336C57.0215 15.6074 57.1369 15.3288 57.3708 15.098C57.6078 14.8641 57.8924 14.7472 58.2248 14.7472C58.5388 14.7472 58.8157 14.8641 59.0558 15.098C59.2989 15.3288 59.422 15.6074 59.4251 15.9336C59.422 16.1552 59.3636 16.3568 59.2497 16.5384C59.1389 16.7199 58.9927 16.8646 58.8111 16.9723C58.6326 17.08 58.4372 17.1339 58.2248 17.1339ZM60.1626 9.40128V7.54545H68.1537V9.40128H65.2869V17H63.034V9.40128H60.1626ZM69.2698 17V7.54545H71.5549V11.3402H75.2804V7.54545H77.5609V17H75.2804V13.2006H71.5549V17H69.2698ZM78.9944 17V7.54545H85.5867V9.40128H81.2795V11.3402H85.2497V13.2006H81.2795V15.1442H85.5867V17H78.9944ZM87.0178 7.54545H89.8477L92.2483 13.3991H92.3591L94.7596 7.54545H97.5895V17H95.3644V11.1925H95.2859L93.0146 16.94H91.5927L89.3214 11.1602H89.2429V17H87.0178V7.54545ZM99.0149 17V7.54545H105.607V9.40128H101.3V11.3402H105.27V13.2006H101.3V15.1442H105.607V17H99.0149Z" fill="#222222"></path></svg>