<svg xmlns="http://www.w3.org/2000/svg" width="40" height="40" viewBox="0 0 40 40" fill="none"><path fill-rule="evenodd" clip-rule="evenodd" d="M20 38.3332C20 38.3332 35 28.3332 35 16.6665C35 12.6883 33.4196 8.87295 30.6066 6.0599C27.7936 3.24686 23.9782 1.6665 20 1.6665C16.0218 1.6665 12.2064 3.24686 9.3934 6.0599C6.58035 8.87295 5 12.6883 5 16.6665C5 28.3332 20 38.3332 20 38.3332ZM25 16.6665C25 19.4279 22.7614 21.6665 20 21.6665C17.2386 21.6665 15 19.4279 15 16.6665C15 13.9051 17.2386 11.6665 20 11.6665C22.7614 11.6665 25 13.9051 25 16.6665Z" fill="#222222"></path></svg>